<svg width="33" height="28" viewBox="0 0 33 28" fill="none" xmlns="http://www.w3.org/2000/svg">
<g clip-path="url(#clip0_2036_296)">
<path d="M16.187 0L8.97867 9.28072H15.8266C16.187 9.28072 16.187 9.28072 16.187 9.01041V0Z" fill="white"/>
<path d="M16.9218 0L24.1301 9.28072H17.2822C16.9218 9.28072 16.9218 9.28072 16.9218 9.01041V0Z" fill="white"/>
<path d="M16.9218 19.2197L24.1301 9.939H17.2822C16.9218 9.939 16.9218 9.939 16.9218 10.2093V19.2197Z" fill="white"/>
<path d="M16.187 19.2197L8.97867 9.939H15.8266C16.187 9.939 16.187 9.939 16.187 10.2093V19.2197Z" fill="white"/>
<path d="M8.55776 10.6621L15.7828 19.9214H8.91901C8.55776 19.9214 8.55776 19.9213 8.55776 19.6517V10.6621Z" fill="white"/>
<path d="M24.5343 10.6621L17.326 19.9428H24.1739C24.5343 19.9428 24.5343 19.9428 24.5343 19.6725V10.6621Z" fill="white"/>
<path d="M25.2692 10.6621L32.4775 19.9428H25.6296C25.2692 19.9428 25.2692 19.9428 25.2692 19.6725V10.6621Z" fill="white"/>
<path d="M7.83968 10.6621L0.631348 19.9428H7.47926C7.83968 19.9428 7.83968 19.9428 7.83968 19.6725V10.6621Z" fill="white"/>
<rect y="23.2886" width="33.1088" height="4.48933" rx="0.210437" fill="white"/>
</g>
<defs>
<clipPath id="clip0_2036_296">
<rect width="33" height="28" fill="white"/>
</clipPath>
</defs>
</svg>
