<svg width="127" height="56" viewBox="0 0 127 56" fill="none" xmlns="http://www.w3.org/2000/svg">
<path d="M115.775 31.6854C113.678 31.6854 111.835 31.2659 110.247 30.427C108.659 29.5581 107.416 28.3745 106.517 26.8764C105.618 25.3483 105.169 23.6105 105.169 21.6629C105.169 19.4457 105.678 17.5581 106.697 16C107.715 14.442 109.049 13.2584 110.697 12.4494C112.345 11.6405 114.097 11.236 115.955 11.236C117.933 11.236 119.671 11.6554 121.169 12.4944C122.697 13.3333 123.88 14.5169 124.719 16.045C125.588 17.5431 126.023 19.2659 126.023 21.2135C126.023 23.191 125.558 24.9738 124.629 26.5618C123.73 28.1199 122.502 29.3633 120.944 30.2921C119.386 31.221 117.663 31.6854 115.775 31.6854ZM116.225 28.809C116.974 28.809 117.603 28.5693 118.112 28.0899C118.652 27.6105 119.056 26.9064 119.326 25.9775C119.626 25.0487 119.775 23.9401 119.775 22.6517C119.775 20.0749 119.356 17.9775 118.517 16.3596C117.708 14.7416 116.614 13.9326 115.236 13.9326C114.097 13.9326 113.199 14.5169 112.539 15.6854C111.88 16.824 111.551 18.382 111.551 20.3596C111.551 21.9476 111.745 23.3858 112.135 24.6742C112.554 25.9626 113.109 26.9813 113.798 27.7303C114.517 28.4494 115.326 28.809 116.225 28.809Z" fill="white"/>
<path d="M90.9664 31.3258L90.8316 29.2135L93.753 28.4944C93.7829 28.1648 93.8129 27.5955 93.8428 26.7865C93.9028 25.9476 93.9477 24.9888 93.9777 23.9101C94.0076 22.8315 94.0226 21.7828 94.0226 20.764V15.1011C94.0226 14.0524 94.0076 13.0187 93.9777 12C93.9777 10.9513 93.9627 9.96254 93.9327 9.03371C93.9327 8.0749 93.9177 7.22097 93.8878 6.47191C93.8578 5.69288 93.8129 5.06367 93.753 4.58427L90.4271 4.13483L90.3372 2.20225L98.9215 0L100.18 0.764045C100.12 2.02247 100.06 3.25094 100 4.44944C99.9702 5.61798 99.9552 6.95131 99.9552 8.44944C99.9552 9.94756 99.9402 11.7753 99.9103 13.9326L99.8653 20.5393C99.8653 22.6367 99.8803 24.4195 99.9103 25.8876C99.9702 27.3258 100.03 28.1947 100.09 28.4944L103.011 29.2135L102.922 31.3258H90.9664Z" fill="white"/>
<path d="M77.5731 31.3258L77.4383 29.2135L80.3596 28.4944C80.3896 28.1648 80.4196 27.5955 80.4495 26.7865C80.5095 25.9476 80.5544 24.9888 80.5844 23.9101C80.6143 22.8315 80.6293 21.7828 80.6293 20.764V15.1011C80.6293 14.0524 80.6143 13.0187 80.5844 12C80.5844 10.9513 80.5694 9.96254 80.5394 9.03371C80.5394 8.0749 80.5244 7.22097 80.4945 6.47191C80.4645 5.69288 80.4196 5.06367 80.3596 4.58427L77.0338 4.13483L76.9439 2.20225L85.5282 0L86.7866 0.764045C86.7267 2.02247 86.6668 3.25094 86.6068 4.44944C86.5769 5.61798 86.5619 6.95131 86.5619 8.44944C86.5619 9.94756 86.5469 11.7753 86.517 13.9326L86.472 20.5393C86.472 22.6367 86.487 24.4195 86.517 25.8876C86.5769 27.3258 86.6368 28.1947 86.6967 28.4944L89.6181 29.2135L89.5282 31.3258H77.5731Z" fill="white"/>
<path d="M65.0338 31.6854C62.9364 31.6854 61.0937 31.2659 59.5057 30.427C57.9177 29.5581 56.6743 28.3745 55.7754 26.8764C54.8765 25.3483 54.4271 23.6105 54.4271 21.6629C54.4271 19.4457 54.9364 17.5581 55.9552 16C56.9739 14.442 58.3072 13.2584 59.9552 12.4494C61.6031 11.6405 63.3559 11.236 65.2136 11.236C67.1911 11.236 68.9289 11.6554 70.4271 12.4944C71.9552 13.3333 73.1387 14.5169 73.9776 16.045C74.8466 17.5431 75.281 19.2659 75.281 21.2135C75.281 23.191 74.8166 24.9738 73.8878 26.5618C72.9889 28.1199 71.7604 29.3633 70.2024 30.2921C68.6443 31.221 66.9215 31.6854 65.0338 31.6854ZM65.4833 28.809C66.2323 28.809 66.8615 28.5693 67.3709 28.0899C67.9102 27.6105 68.3147 26.9064 68.5844 25.9775C68.884 25.0487 69.0338 23.9401 69.0338 22.6517C69.0338 20.0749 68.6143 17.9775 67.7754 16.3596C66.9664 14.7416 65.8728 13.9326 64.4945 13.9326C63.3559 13.9326 62.457 14.5169 61.7979 15.6854C61.1387 16.824 60.8091 18.382 60.8091 20.3596C60.8091 21.9476 61.0038 23.3858 61.3934 24.6742C61.8128 25.9626 62.3671 26.9813 63.0563 27.7303C63.7754 28.4494 64.5844 28.809 65.4833 28.809Z" fill="white"/>
<path d="M28.2697 41.2135L28.1348 39.1461L30.9214 38.382C30.9214 38.2022 30.9363 37.8277 30.9663 37.2584C30.9963 36.7191 31.0262 36.03 31.0562 35.191C31.0861 34.382 31.1161 33.4831 31.1461 32.4944C31.176 31.5356 31.191 30.5468 31.191 29.5281L31.2809 20.5843C31.2809 19.7154 31.2509 18.9214 31.191 18.2023C31.1311 17.4832 31.0262 16.7491 30.8764 16L28 15.3708V13.3483L35.9101 11.3258L37.1236 12.0899L36.809 14.8315L36.9438 14.8764C37.633 13.7678 38.5169 12.8839 39.5955 12.2247C40.6742 11.5655 41.8127 11.236 43.0113 11.236C44.4495 11.236 45.7978 11.6105 47.0562 12.3596C48.3146 13.0787 49.3334 14.1423 50.1124 15.5506C50.8914 16.9588 51.2809 18.6517 51.2809 20.6292C51.2809 22.6067 50.8165 24.4345 49.8877 26.1124C48.9888 27.7603 47.7154 29.0936 46.0674 30.1124C44.4195 31.1311 42.4569 31.6405 40.1798 31.6405C39.7004 31.6405 39.176 31.5955 38.6068 31.5056C38.0674 31.4157 37.5281 31.2809 36.9888 31.1011V33.9326C36.9888 34.9213 37.0038 35.8502 37.0337 36.7191C37.0936 37.588 37.1536 38.1423 37.2135 38.382L40.8989 39.1011L40.7641 41.2135H28.2697ZM40.2697 28.4494C41.1985 28.4494 42.0075 28.2397 42.6966 27.8202C43.4157 27.3708 43.985 26.6667 44.4045 25.7079C44.824 24.7491 45.0337 23.5206 45.0337 22.0225C45.0337 20.4644 44.809 19.221 44.3596 18.2921C43.9401 17.3333 43.3708 16.6292 42.6517 16.1798C41.9626 15.7303 41.2135 15.5056 40.4045 15.5056C39.7753 15.5056 39.1611 15.6704 38.5618 16C37.9626 16.2996 37.4382 16.7191 36.9888 17.2584V27.5056C37.4382 27.8052 37.9476 28.0449 38.5169 28.2247C39.0862 28.3745 39.6704 28.4494 40.2697 28.4494Z" fill="white"/>
<path d="M0.134832 31.3258L0 29.0786L2.33708 28.3595L11.4607 6.24719L15.191 4.13483L25.5731 28.3595L27.8652 29.0786L27.7304 31.3258H15.7753L15.5955 29.0786L18.4719 28.3595L16.045 22.5618L15.5506 21.0337L11.0562 10.382L12.3596 10.7416L8.62922 20.8989L8.17978 22.2472L6.06742 28.3595L8.94383 29.0786L8.809 31.3258H0.134832ZM7.14608 23.6854V20.6292C7.71536 20.6592 8.37454 20.7041 9.12361 20.764C9.90263 20.794 10.9214 20.809 12.1798 20.809C13.3783 20.809 14.3671 20.794 15.1461 20.764C15.9551 20.7041 16.6442 20.6592 17.2135 20.6292V23.6404C16.6442 23.6404 15.9551 23.6255 15.1461 23.5955C14.3371 23.5655 13.3483 23.5506 12.1798 23.5506C10.9513 23.5506 9.94758 23.5655 9.16855 23.5955C8.38952 23.6255 7.71536 23.6554 7.14608 23.6854Z" fill="white"/>
<path d="M120.798 55.7753L120.742 54.736L122.567 54.3427C122.605 54.1554 122.633 53.8465 122.652 53.4157C122.67 52.985 122.68 52.4139 122.68 51.7023C122.699 50.9906 122.708 50.1199 122.708 49.0899V45.5787C122.708 44.8671 122.699 44.1367 122.68 43.3877C122.68 42.6386 122.67 41.9363 122.652 41.2809C122.652 40.6068 122.642 40.0356 122.624 39.5674C122.624 39.0805 122.614 38.7622 122.596 38.6124L120.517 38.3315L120.461 37.4326L124.478 36.2809L125.011 36.6742C124.993 37.4607 124.974 38.2472 124.955 39.0337C124.936 39.8202 124.918 40.691 124.899 41.6461C124.899 42.6011 124.899 43.7528 124.899 45.1011L124.871 49.6236C124.871 50.7285 124.88 51.7303 124.899 52.6292C124.936 53.5094 124.974 54.0805 125.011 54.3427L126.837 54.736L126.781 55.7753H120.798Z" fill="white"/>
<path d="M114.337 55.9999C113.251 55.9999 112.268 55.7565 111.388 55.2696C110.526 54.7827 109.833 54.0898 109.309 53.1909C108.803 52.2733 108.551 51.1965 108.551 49.9606C108.551 48.631 108.822 47.4793 109.365 46.5055C109.908 45.5317 110.62 44.7827 111.5 44.2583C112.38 43.7153 113.326 43.4531 114.337 43.4718C115.798 43.4905 116.94 43.9774 117.764 44.9325C118.588 45.8876 119 47.2359 119 48.9774V49.4831H110.376V48.2471H117.146L116.837 48.6123V48.0224C116.837 46.9362 116.594 46.1029 116.107 45.5224C115.62 44.9419 114.955 44.6516 114.112 44.6516C113.588 44.6516 113.082 44.8108 112.596 45.1291C112.109 45.4288 111.715 45.8969 111.416 46.5336C111.116 47.1516 110.966 47.9381 110.966 48.8932V49.2302C110.966 50.7658 111.341 51.9643 112.09 52.8258C112.858 53.6872 113.841 54.1179 115.039 54.1179C115.695 54.1179 116.285 53.9868 116.809 53.7246C117.333 53.4625 117.839 53.0411 118.326 52.4606L119.028 53.1067C118.504 54.0804 117.839 54.8108 117.034 55.2977C116.229 55.7658 115.33 55.9999 114.337 55.9999Z" fill="white"/>
<path d="M107.736 54.0337C107.38 54.6517 106.893 55.1386 106.275 55.4944C105.657 55.8315 105.011 56 104.337 56C103.195 56 102.259 55.6536 101.528 54.9607C100.798 54.2678 100.433 53.2285 100.433 51.8427L100.517 45.1292H98.5507V44.5394L102.174 41.2528H102.708L102.652 44.4832L102.624 51.3933C102.624 52.3671 102.83 53.088 103.242 53.5562C103.672 54.0244 104.272 54.2585 105.039 54.2585C105.47 54.2585 105.863 54.1742 106.219 54.0056C106.594 53.8371 106.931 53.6124 107.23 53.3315L107.736 54.0337ZM101.641 45.1292V43.7247H106.893V45.1292H101.641Z" fill="white"/>
<path d="M90.9945 56C89.7773 56 88.7098 55.7378 87.7922 55.2135C86.8934 54.6891 86.1911 53.9588 85.6855 53.0225C85.1799 52.0674 84.9271 50.9813 84.9271 49.7641C84.9271 48.4906 85.208 47.3858 85.7698 46.4495C86.3316 45.5131 87.0806 44.7828 88.017 44.2584C88.9533 43.7341 89.9832 43.4719 91.1068 43.4719C92.2679 43.4719 93.2791 43.7341 94.1406 44.2584C95.0207 44.7641 95.6949 45.485 96.163 46.4214C96.6499 47.339 96.8934 48.4157 96.8934 49.6517C96.8934 50.8315 96.6312 51.8989 96.1068 52.8539C95.5825 53.809 94.8709 54.5768 93.972 55.1573C93.0919 55.7191 92.0994 56 90.9945 56ZM91.2754 54.6798C91.9121 54.6798 92.4645 54.4925 92.9327 54.118C93.4009 53.7247 93.766 53.191 94.0282 52.5169C94.2904 51.824 94.4215 51.0375 94.4215 50.1573C94.4215 48.5468 94.0844 47.2453 93.4102 46.2528C92.7548 45.2416 91.884 44.736 90.7979 44.736C89.7866 44.736 88.972 45.1573 88.354 46C87.7548 46.8427 87.4552 47.9569 87.4552 49.3427C87.4552 50.3914 87.6143 51.3184 87.9327 52.1236C88.2698 52.9289 88.7286 53.5562 89.3091 54.0056C89.8896 54.4551 90.545 54.6798 91.2754 54.6798Z" fill="white"/>
<path d="M76.3877 55.7753L76.3315 54.7079L78.045 54.3146C78.0824 54.2397 78.1105 54.0524 78.1293 53.7528C78.1667 53.4345 78.1854 52.985 78.1854 52.4045C78.2042 51.824 78.2135 51.0843 78.2135 50.1854V44.9045C78.2135 43.9869 78.2042 43.2378 78.1854 42.6573C78.1854 42.0581 78.1667 41.6086 78.1293 41.309C78.1105 40.9906 78.0824 40.8034 78.045 40.7472L76.3315 40.3539L76.3877 39.2865H82.427L82.5113 40.3539L80.7697 40.7472C80.7323 40.8034 80.6948 40.9906 80.6573 41.309C80.6386 41.6086 80.6199 42.0581 80.6012 42.6573C80.6012 43.2378 80.6012 43.9869 80.6012 44.9045V50.1854C80.6012 51.0843 80.6012 51.824 80.6012 52.4045C80.6199 52.985 80.6386 53.4345 80.6573 53.7528C80.6948 54.0524 80.7323 54.2397 80.7697 54.3146L82.5113 54.7079L82.427 55.7753H76.3877ZM66.2753 55.7753L66.191 54.7079L67.9326 54.3146C67.9701 54.221 67.9888 54.0056 67.9888 53.6685C68.0075 53.3315 68.0169 52.8727 68.0169 52.2921C68.0356 51.7116 68.045 51.0094 68.045 50.1854V44.9045C68.045 44.0618 68.0356 43.3502 68.0169 42.7697C68.0169 42.1704 68.0075 41.7023 67.9888 41.3652C67.9888 41.0281 67.9701 40.8221 67.9326 40.7472L66.191 40.3539L66.2753 39.2865H72.2585L72.3146 40.3539L70.6012 40.7472C70.5637 40.8034 70.5263 40.9906 70.4888 41.309C70.4701 41.6086 70.4513 42.0581 70.4326 42.6573C70.4326 43.2378 70.4326 43.9869 70.4326 44.9045V50.1854C70.4326 51.0843 70.4326 51.824 70.4326 52.4045C70.4513 52.985 70.4701 53.4345 70.4888 53.7528C70.5263 54.0524 70.5637 54.2397 70.6012 54.3146L72.3146 54.7079L72.2585 55.7753H66.2753ZM70.0955 48.1348V46.4775C70.4701 46.4963 71.0131 46.515 71.7248 46.5337C72.4551 46.5524 73.3352 46.5618 74.3652 46.5618C75.3764 46.5618 76.2379 46.5524 76.9495 46.5337C77.6611 46.515 78.1854 46.4963 78.5225 46.4775V48.1348C78.1105 48.0974 77.5768 48.0693 76.9214 48.0506C76.266 48.0318 75.4139 48.0225 74.3652 48.0225C73.2791 48.0225 72.3989 48.0318 71.7248 48.0506C71.0506 48.0693 70.5075 48.0974 70.0955 48.1348Z" fill="white"/>
</svg>
